<svg xmlns="http://www.w3.org/2000/svg" width="24" height="25" fill="none" viewBox="0 0 24 25">
  <path fill="#fff" d="M21.4 8.348a1 1 0 1 0-2 0h2Zm-16.8 0v-1h-2v1h2Zm0 10.956a1 1 0 1 0-2 0h2Zm-2-3.13a1 1 0 1 0 2 0h-2Zm16.8-7.826V21h2V8.348h-2ZM17.4 23H6.6v2h10.8v-2ZM4.6 15.13V8.348h-2v6.782h2Zm0 5.87v-1.696h-2V21h2Zm0-4.826V15.13h-2v1.044h2ZM6.6 23a2 2 0 0 1-2-2h-2a4 4 0 0 0 4 4v-2Zm12.8-2a2 2 0 0 1-2 2v2a4 4 0 0 0 4-4h-2Z"/>
  <path stroke="#fff" stroke-linecap="round" stroke-width="1.5" d="M7.568 11.185v8.935m4.364-8.935v8.935m4.363-8.935v4.239m0 3.065v1.631M.75 7.598h22.5"/>
  <rect width="7.227" height="2.674" x="8.386" y=".75" stroke="#fff" stroke-width="1.5" rx="1.337"/>
  <path stroke="#fff" stroke-width="2" d="M2.488 5.902A2 2 0 0 1 4.475 4.13h15.05a2 2 0 0 1 1.987 1.772l.166 1.446H2.322l.166-1.446Z"/>
</svg>
