<svg xmlns="http://www.w3.org/2000/svg" width="33" height="29" fill="none" viewBox="0 0 33 29">
  <path fill="#fff" stroke="#fff" d="M7 28h7v-7h5v7h7a1 1 0 0 0 1-1v-9.023a1 1 0 0 0-.37-.777l-9.5-7.69a1 1 0 0 0-1.26 0l-9.5 7.69a1 1 0 0 0-.37.777V27a1 1 0 0 0 1 1ZM21 2v4.426a1 1 0 0 0 .273.687L24 10V2a1 1 0 0 0-1-1h-1a1 1 0 0 0-1 1Z"/>
  <path fill="#fff" stroke="#fff" d="M15.872 3.506 1.752 14.894a1 1 0 0 0-.173 1.378l.294.392a1 1 0 0 0 1.435.173L15.865 6.52a1 1 0 0 1 1.27 0l12.557 10.316a1 1 0 0 0 1.435-.173l.294-.392a1 1 0 0 0-.172-1.378L17.127 3.506a1 1 0 0 0-1.256 0Z"/>
</svg>
