<svg xmlns="http://www.w3.org/2000/svg" width="479" height="480" fill="none" viewBox="0 0 479 480">
  <path fill="#fff" d="M221.488.296c-24.1 2.7-38.2 5.6-55.5 11.1-50.7 16.3-94.8 49.1-124.4 92.7-20.7 30.5-33.7 63.8-39.8 101.8-2.4 15.7-2.4 51.7.1 67.6 7.4 47.2 25.9 87.9 56.1 123 38.2 44.5 91.6 73.1 151.5 81.4 12.3 1.7 47.8 1.6 60-.1 69.7-9.6 128.8-45.7 167.8-102.4 20.6-29.9 33.9-63.9 39.8-101.9 2.5-15.7 2.5-51.8.1-67.5-8.2-52.1-31.3-98.5-67.1-134.7-36.9-37.4-83-60.7-136.3-69.1-9.3-1.5-44.8-2.8-52.3-1.9Zm26.8 98.1c1.4 1 3.5 3.2 4.6 4.7 2.1 2.7 2.1 3.7 2.1 64.6 0 60.9 0 61.9-2.1 64.6-3.9 5.3-7.1 6.9-13.4 6.9-6.3 0-9.5-1.6-13.4-6.9-2.1-2.7-2.1-3.9-2.4-61.9-.2-32.6 0-60.6.3-62.4.7-4 4.9-9.1 9-10.9 4-1.9 12-1.2 15.3 1.3Zm-79.7 26.9c3.8 1.9 7 6.7 7.6 11.3.9 6.7-1.1 10.3-10.7 19.1-39.1 35.7-49 89.3-25 135.9 21.2 41.1 68.1 65.5 113.5 59.1 19.5-2.8 40.3-11.6 55.1-23.4 30.4-24.1 46.7-64.4 41.4-102.1-3.8-26.4-17.5-52.3-36.4-69-9.6-8.4-11.5-13.8-7.7-22.1 2.3-4.9 6.8-8.4 12-9.1 7-.9 10.6 1.2 22.5 13.1 20.6 20.5 33.7 44.4 39.7 72.6 3 14.2 3.3 39.8.5 54.5-5.5 29.5-18.8 54.7-40.1 76-21.3 21.3-46.5 34.6-76 40.1-13.7 2.6-37.3 2.6-51 0-59.4-11.2-105-56.7-116.1-116.1-2.8-14.6-2.5-40.3.4-54.2 6.7-31.1 22.1-57.7 45.6-78.7 10.6-9.5 16.6-11.2 24.7-7Z"/>
</svg>
