<svg xmlns="http://www.w3.org/2000/svg" width="26" height="26" fill="none" viewBox="0 0 26 26">
  <path stroke="#fff" stroke-width="2" d="M12.345 8.114a1 1 0 0 1 1.31 0l2.621 2.275a.2.2 0 0 0 .246.013l2.544-1.766a1 1 0 0 1 1.57.821v6.518c0 .767-.621 1.389-1.388 1.389H7.364a2 2 0 0 1-2-2V9.457a1 1 0 0 1 1.57-.821l2.544 1.766a.2.2 0 0 0 .245-.013l2.621-2.275Z"/>
  <path stroke="#fff" stroke-linecap="round" stroke-width="2" d="M25 13V3a2 2 0 0 0-2-2H3a2 2 0 0 0-2 2v20a2 2 0 0 0 2 2h20a2 2 0 0 0 2-2v-1m0-5.25v1.5"/>
</svg>
