<svg xmlns="http://www.w3.org/2000/svg" width="26" height="26" fill="none" viewBox="0 0 26 26">
  <path fill="#fff" d="M0 16a1 1 0 1 0 2 0H0Zm2 4.5a1 1 0 1 0-2 0h2ZM3 2h20V0H3v2Zm21 1v20h2V3h-2Zm-1 21H3v2h20v-2ZM2 13V3H0v10h2Zm0 3v-3H0v3h2Zm0 7v-1H0v1h2Zm0-1v-1.5H0V22h2Zm1 2a1 1 0 0 1-1-1H0a3 3 0 0 0 3 3v-2Zm21-1a1 1 0 0 1-1 1v2a3 3 0 0 0 3-3h-2ZM23 2a1 1 0 0 1 1 1h2a3 3 0 0 0-3-3v2ZM3 0a3 3 0 0 0-3 3h2a1 1 0 0 1 1-1V0Z"/>
  <path stroke="#fff" stroke-linecap="round" stroke-width="2" d="M13 6v14m-7-7h14"/>
</svg>
