<svg xmlns="http://www.w3.org/2000/svg" width="24" height="26" fill="none" viewBox="0 0 24 26">
  <rect width="4.5" height="7.5" x="4.75" y=".75" stroke="#fff" stroke-width="1.5" rx="2.25"/>
  <path fill="#fff" fill-rule="evenodd" d="M14 4h-4v1.5h4V4Zm6 1.5A2.5 2.5 0 0 1 22.5 8v14a2.5 2.5 0 0 1-2.5 2.5H4A2.5 2.5 0 0 1 1.5 22V8A2.5 2.5 0 0 1 4 5.5V4a4 4 0 0 0-4 4v14a4 4 0 0 0 4 4h16a4 4 0 0 0 4-4V8a4 4 0 0 0-4-4v1.5Z" clip-rule="evenodd"/>
  <rect width="4.5" height="7.5" x="14.75" y=".75" stroke="#fff" stroke-width="1.5" rx="2.25"/>
  <rect width="16.5" height="11.5" x="3.75" y="10.75" stroke="#fff" stroke-width="1.5" rx="2.25"/>
  <rect width="2" height="2" x="6.5" y="13.5" stroke="#fff" rx=".5"/>
  <rect width="2" height="2" x="15.5" y="13.5" stroke="#fff" rx=".5"/>
  <rect width="2" height="2" x="11" y="13.5" stroke="#fff" rx=".5"/>
  <rect width="2" height="2" x="6.5" y="17.5" stroke="#fff" rx=".5"/>
  <rect width="2" height="2" x="15.5" y="17.5" stroke="#fff" rx=".5"/>
  <rect width="2" height="2" x="11" y="17.5" stroke="#fff" rx=".5"/>
</svg>
