<svg xmlns="http://www.w3.org/2000/svg" width="26" height="26" fill="none" viewBox="0 0 26 26">
  <rect width="24" height="24" x="1" y="1" stroke="#fff" stroke-width="2" rx="2"/>
  <path fill="#fff" d="M13.75 6a.75.75 0 0 0-1.5 0h1.5Zm-1.28 11.53a.75.75 0 0 0 1.06 0l4.773-4.773a.75.75 0 0 0-1.06-1.06L13 15.939l-4.243-4.242a.75.75 0 1 0-1.06 1.06l4.773 4.773ZM12.25 6v11h1.5V6h-1.5Z"/>
  <path stroke="#fff" stroke-linecap="round" stroke-width="1.5" d="M6.75 17.75v2.5m.02 0h12.98m0-2.5v2.5"/>
</svg>
